# AST/ASF file generated using VICON BodyLanguage
# -----------------------------------------------
:version 1.10
:name VICON
:units
  mass 1.0
  length 0.45
  angle deg
:documentation
   .ast/.asf automatically generated from VICON data using
   VICON BodyBuilder and BodyLanguage model FoxedUp or BRILLIANT.MOD
:root
   order TX TY TZ RX RY RZ
   axis XYZ
   position 0 0 0  
   orientation 0 0 0 
:bonedata
  begin
     id 1 
     name lhipjoint
     direction 0.645893 -0.654526 0.392961 
     length 2.38111 
     axis 0 0 0  XYZ
  end
  begin
     id 2 
     name lfemur
     direction 0.34202 -0.939693 0  
     length 6.6822  
     axis 0 0 20  XYZ
    dof rx ry rz
    limits (-160.0 20.0)
           (-70.0 70.0)
           (-60.0 70.0)
  end
  begin
     id 3 
     name ltibia
     direction 0.34202 -0.939693 0   
     length 6.93904   
     axis 0 0 20   XYZ
    dof rx
    limits (-10.0 170.0)
  end
  begin
     id 4 
     name lfoot
     direction 0.0694967 -0.190941 0.979138   
     length 2.13616   
     axis -90 7.62852e-016 20   XYZ
    dof rx rz
    limits (-45.0 90.0)
           (-70.0 20.0)
  end
  begin
     id 5 
     name ltoes
     direction 1.535e-011 -4.2202e-011 1   
     length 1.07536   
     axis -90 7.62852e-016 20   XYZ
    dof rx
    limits (-90.0 20.0)
  end
  begin
     id 6 
     name rhipjoint
     direction -0.700219 -0.612087 0.367481   
     length 2.54621  
     axis 0 0 0  XYZ 
  end
  begin
     id 7 
     name rfemur
     direction -0.34202 -0.939693 0   
     length 6.55353   
     axis 0 0 -20   XYZ
    dof rx ry rz
    limits (-160.0 20.0)
           (-70.0 70.0)
           (-70.0 60.0)
  end
  begin
     id 8 
     name rtibia
     direction -0.34202 -0.939693 0   
     length 6.8736   
     axis 0 0 -20   XYZ
    dof rx
    limits (-10.0 170.0)
 end
 begin
     id 9 
     name rfoot
     direction -0.0679995 -0.186827 0.980037   
     length 2.1218  
     axis -90 -7.62852e-016 -20   XYZ
    dof rx rz
    limits (-45.0 90.0)
           (-20.0 70.0)
  end
  begin
     id 10 
     name rtoes
     direction -1.53589e-011 -4.21772e-011 1   
     length 1.06864   
     axis -90 -7.62852e-016 -20   XYZ
    dof rx
    limits (-90.0 20.0)
  end
  begin
     id 11 
     name lowerback
     direction -0.0416607 0.996347 -0.0745409   
     length 2.12205   
     axis 0 0 0   XYZ
    dof rx ry rz
    limits (-20.0 45.0)
           (-30.0 30.0)
           (-30.0 30.0)
  end
  begin
     id 12 
     name upperback
     direction -0.000153993 0.999276 -0.0380568   
     length 2.12759   
     axis 0 0 0   XYZ
    dof rx ry rz
    limits (-20.0 45.0)
           (-30.0 30.0)
           (-30.0 30.0)
  end
  begin
     id 13 
     name thorax
     direction 0.0187671 0.999821 -0.00241421   
     length 2.13704   
     axis 0 0 0   XYZ
    dof rx ry rz
    limits (-20.0 45.0)
           (-30.0 30.0)
           (-30.0 30.0)
  end
  begin
     id 14 
     name lowerneck
     direction 0.0268157 0.964865 0.261374   
     length 1.65253   
     axis 0 0 0   XYZ
    dof rx ry rz
    limits (-20.0 45.0)
           (-30.0 30.0)
           (-30.0 30.0)
  end
  begin
     id 15 
     name upperneck
     direction 0.00263774 0.939908 -0.341418   
     length 1.72375   
     axis 0 0 0   XYZ
    dof rx ry rz
    limits (-20.0 45.0)
           (-30.0 30.0)
           (-30.0 30.0)
  end
  begin
     id 16
     name head
     direction -0.00526001 0.989001 -0.147818  
     length 1.74878  
     axis 0 0 0   XYZ
    dof rx ry rz
    limits (-20.0 45.0)
           (-30.0 30.0)
           (-30.0 30.0)
  end
  begin
     id 17 
     name lclavicle
     direction 0.881214 0.461162 -0.103884  
     length 3.25108  
     axis 0 0 0   XYZ
    dof ry rz
    limits (-20.0 10.0)
           (0.0 20.0)
  end
  begin
     id 18 
     name lhumerus
     direction 1 -4.4899e-011 3.38092e-027   
     length 4.87408   
     axis 180 -30 -90   XYZ
    dof rx ry rz
    limits (-60.0 90.0)
           (-90.0 90.0)
           (-90.0 90.0)
  end
  begin
     id 19
     name lradius
     direction 1 -4.48931e-011 9.96288e-027   
     length 2.76729   
     axis 180 -30 -90   XYZ
    dof rx
    limits (-10.0 170.0)
  end
  begin
     id 20
     name lwrist
     direction 1 -4.4896e-011 1.50617e-026   
     length 1.38364   
     axis -9.31234e-015 90 90   XYZ
    dof ry
    limits (-180.0 0.0)
 end
  begin
     id 21 
     name lhand
     direction 1 -4.49038e-011 3.01286e-026   
     length 0.98922   
     axis -1.92217e-014 90 90   XYZ
    dof rx rz
    limits (-90.0 90.0)
           (-45.0 45.0)
  end
  begin
     id 22 
     name lfingers
     direction 1 -4.49051e-011 6.02588e-026   
     length 0.797535   
     axis -3.84436e-014 90 90   XYZ
    dof rx
    limits (0.0 90.0)
  end
  begin
     id 23
     name lthumb
     direction 0.707107 -6.34901e-011 0.707107   
     length 1.14511   
     axis -90 45 2.19363e-014   XYZ
    dof rx rz
    limits (-45.0 45.0)
           (-45.0 45.0)
  end
  begin
     id 24 
     name rclavicle
     direction -0.893894 0.441652 -0.0767889   
     length 3.29361  
     axis 0 0 0   XYZ 
    dof ry rz
    limits (-10.0 20.0)
           (-20.0 0.0)
  end
  begin
     id 25 
     name rhumerus
     direction -1 -4.48945e-011 8.0491e-028  
     length 4.71404   
     axis 180 30 90   XYZ
    dof rx ry rz
    limits (-90.0 60.0)
           (-90.0 90.0)
           (-90.0 90.0)
  end
  begin
     id 26 
     name rradius
     direction -1 -4.48986e-011 9.27795e-027   
     length 2.83468   
     axis 180 30 90   XYZ
    dof rx
    limits (-10.0 170.0)
  end
  begin
     id 27 
     name rwrist
     direction -1 -4.49029e-011 1.5064e-026   
     length 1.41734   
     axis -9.31234e-015 -90 -90   XYZ
    dof ry
    limits (-180.0 0.0)
  end
  begin
     id 28
     name rhand
     direction -1 -4.48857e-011 3.01165e-026   
     length 0.868195   
     axis -1.92217e-014 -90 -90   XYZ
    dof rx rz
    limits (-90.0 90.0)
           (-45.0 45.0)
  end
  begin
     id 29
     name rfingers
     direction -1 -4.49048e-011 6.02585e-026   
     length 0.699961   
     axis -3.84436e-014 -90 -90   XYZ
    dof rx
    limits (0.0 90.0)
  end
  begin
     id 30
     name rthumb
     direction -0.707107 -6.34854e-011 0.707107   
     length 1.00501   
     axis -90 -45 -2.19363e-014   XYZ
    dof rx rz
    limits (-45.0 45.0)
           (-45.0 45.0)
  end
:hierarchy
  begin
    root lhipjoint rhipjoint lowerback
    lhipjoint lfemur
    lfemur ltibia
    ltibia lfoot
    lfoot ltoes
    rhipjoint rfemur
    rfemur rtibia
    rtibia rfoot
    rfoot rtoes
    lowerback upperback
    upperback thorax
    thorax lowerneck lclavicle rclavicle
    lowerneck upperneck
    upperneck head
    lclavicle lhumerus
    lhumerus lradius
    lradius lwrist
    lwrist lhand lthumb
    lhand lfingers
    rclavicle rhumerus
    rhumerus rradius
    rradius rwrist
    rwrist rhand rthumb
    rhand rfingers
  end

#!OML:ASF H:\ManfredObstacles\Project 1\Capture day 2\Session 1\male.ASF
:FULLY-SPECIFIED
:DEGREES
177
root 3.85559 14.9251 17.4199 -148.85 -34.4004 -178.551
lowerback 32.4833 5.59991 -3.14243
upperback 17.7316 2.21006 0.164331
thorax 2.51463 -0.545589 1.17287
lowerneck -28.2205 -5.01702 -2.52987
upperneck 21.9419 -9.124 10.3077
head 12.6389 -2.86838 2.62968
rclavicle -3.73715e-014 -1.635e-014
rhumerus -28.3923 12.2933 -96.3247
rradius 103.707
rwrist 32.4457
rhand -16.5204 -17.8637
rfingers 7.12502
rthumb 9.69806 -47.6204
lclavicle -3.73715e-014 -1.635e-014
lhumerus 2.81935 -45.0133 74.912
lradius 61.3586
lwrist -17.1299
lhand -13.0117 29.9956
lfingers 7.12502
lthumb 13.0819 59.5653
rfemur -82.0837 6.78124 8.01007
rtibia 56.2289
rfoot -9.94356 -28.8308
rtoes -17.6287
lfemur -57.9905 -5.0527 -10.7358
ltibia 55.1304
lfoot -11.5375 29.8852
ltoes 5.33353
178
root 3.84464 14.9272 17.3178 -148.836 -34.1368 -178.485
lowerback 32.238 5.53362 -3.18653
upperback 17.7369 2.13147 0.12431
thorax 2.61243 -0.586063 1.17958
lowerneck -28.291 -4.9589 -2.53777
upperneck 22.0714 -9.08262 10.3713
head 12.7059 -2.83734 2.66524
rclavicle -2.40529e-014 2.51649e-014
rhumerus -28.3872 12.2292 -96.3722
rradius 103.688
rwrist 32.4607
rhand -16.5952 -17.8685
rfingers 7.12502
rthumb 9.62597 -47.6286
lclavicle -2.40529e-014 2.51649e-014
lhumerus 2.6766 -44.529 75.0258
lradius 60.8367
lwrist -17.4183
lhand -12.932 29.798
lfingers 7.12502
lthumb 13.1587 59.3628
rfemur -82.1271 6.71435 6.82391
rtibia 54.2841
rfoot -9.42156 -28.7823
rtoes -17.8376
lfemur -57.5103 -4.78099 -10.6855
ltibia 55.0782
lfoot -11.6809 30.1674
ltoes 5.18323
179
root 3.83246 14.9268 17.2133 -148.816 -33.9144 -178.458
lowerback 32.0031 5.46281 -3.20494
upperback 17.7436 2.05493 0.0995416
thorax 2.70886 -0.62421 1.18772
lowerneck -28.3335 -4.90515 -2.49633
upperneck 22.1765 -9.05211 10.3946
head 12.7537 -2.81376 2.67481
rclavicle -7.42461e-014 -1.56294e-014
rhumerus -28.325 12.1137 -96.3759
rradius 103.571
rwrist 32.4867
rhand -16.6497 -17.8797
rfingers 7.12502
rthumb 9.57337 -47.6422
lclavicle -7.42461e-014 -1.56294e-014
lhumerus 2.59419 -44.1133 75.1362
lradius 60.2818
lwrist -17.6576
lhand -12.8381 29.6455
lfingers 7.12502
lthumb 13.2492 59.2044
rfemur -82.0535 6.60799 5.63895
rtibia 52.2607
rfoot -8.9183 -28.7656
rtoes -18.0025
lfemur -57.0175 -4.55813 -10.6491
ltibia 55.0302
lfoot -11.805 30.4521
ltoes 5.0132
180
root 3.81787 14.9252 17.1068 -148.805 -33.7779 -178.503
lowerback 31.8367 5.34357 -3.14958
upperback 17.7524 1.93075 0.0699344
thorax 2.78739 -0.680624 1.16315
lowerneck -28.3691 -4.83906 -2.38728
upperneck 22.2677 -9.0174 10.3738
head 12.7882 -2.78905 2.65676
rclavicle -3.64273e-014 -1.33307e-013
rhumerus -28.1938 11.9691 -96.3892
rradius 103.342
rwrist 32.5498
rhand -16.6657 -17.9161
rfingers 7.12502
rthumb 9.55788 -47.6793
lclavicle -3.64273e-014 -1.33307e-013
lhumerus 2.53654 -43.7383 75.2288
lradius 59.7236
lwrist -17.8396
lhand -12.7346 29.5482
lfingers 7.12502
lthumb 13.349 59.1006
rfemur -81.8111 6.41747 4.4718
rtibia 50.1935
rfoot -8.51571 -28.7978
rtoes -18.1017
lfemur -56.4802 -4.44152 -10.6369
ltibia 54.968
lfoot -11.8799 30.7365
ltoes 4.82411
181
root 3.80444 14.9266 16.9942 -148.945 -33.592 -178.535
lowerback 31.8384 5.32252 -3.1569
upperback 17.7711 1.88693 0.0815083
thorax 2.80804 -0.710608 1.18998
lowerneck -28.3782 -4.80301 -2.26397
upperneck 22.3187 -9.02112 10.3425
head 12.8032 -2.78309 2.62411
rclavicle -8.07066e-014 -6.82841e-014
rhumerus -28.0212 11.7436 -96.35
rradius 103.034
rwrist 32.6558
rhand -16.674 -17.9621
rfingers 7.12502
rthumb 9.54986 -47.7257
lclavicle -8.07066e-014 -6.82841e-014
lhumerus 2.55675 -43.473 75.3234
lradius 59.1225
lwrist -17.9452
lhand -12.6066 29.5151
lfingers 7.12502
lthumb 13.4724 59.0594
rfemur -81.3291 6.3419 3.35917
rtibia 48.0966
rfoot -8.20729 -28.9072
rtoes -18.1616
lfemur -55.7246 -4.28763 -10.648
ltibia 54.8872
lfoot -12.0318 31.0048
ltoes 4.69806
182
root 3.78911 14.9261 16.8799 -149.067 -33.482 -178.633
lowerback 31.8646 5.29022 -3.11757
upperback 17.7875 1.8435 0.125062
thorax 2.81744 -0.737586 1.22536
lowerneck -28.4186 -4.79748 -2.12002
upperneck 22.4059 -9.07016 10.2768
head 12.8389 -2.79656 2.56621
rclavicle 1.97791e-014 2.95847e-014
rhumerus -27.8076 11.4444 -96.2515
rradius 102.655
rwrist 32.7942
rhand -16.6848 -18.0237
rfingers 7.12502
rthumb 9.53945 -47.7878
lclavicle 1.97791e-014 2.95847e-014
lhumerus 2.62394 -43.3227 75.4427
lradius 58.5224
lwrist -17.9765
lhand -12.4533 29.5796
lfingers 7.12502
lthumb 13.6201 59.114
rfemur -80.7391 6.19697 2.27637
rtibia 46.0173
rfoot -7.97677 -29.0794
rtoes -18.1725
lfemur -54.9635 -4.23009 -10.6746
ltibia 54.7973
lfoot -12.1562 31.252
ltoes 4.59387
183
root 3.7755 14.925 16.7613 -149.222 -33.3482 -178.723
lowerback 31.9206 5.30634 -3.12219
upperback 17.8013 1.84609 0.198117
thorax 2.80867 -0.747709 1.30205
lowerneck -28.4851 -4.8127 -1.98928
upperneck 22.496 -9.13865 10.1999
head 12.8817 -2.81957 2.50216
rclavicle -1.0297e-013 -4.88886e-015
rhumerus -27.5615 11.0999 -96.1195
rradius 102.224
rwrist 32.9794
rhand -16.6509 -18.0682
rfingers 7.12502
rthumb 9.57214 -47.8308
lclavicle -1.0297e-013 -4.88886e-015
lhumerus 2.71103 -43.2151 75.59
lradius 57.8963
lwrist -18.0159
lhand -12.2911 29.6475
lfingers 7.12502
lthumb 13.7765 59.1714
rfemur -80.0711 6.11611 1.25504
rtibia 43.9733
rfoot -7.78964 -29.302
rtoes -18.1351
lfemur -54.1499 -4.13361 -10.7048
ltibia 54.7128
lfoot -12.3082 31.467
ltoes 4.49736
184
root 3.76446 14.9236 16.6377 -149.416 -33.1798 -178.81
lowerback 32.0195 5.37688 -3.18155
upperback 17.814 1.89661 0.292389
thorax 2.77816 -0.740936 1.41625
lowerneck -28.585 -4.85145 -1.88657
upperneck 22.6099 -9.23513 10.1343
head 12.9447 -2.85324 2.4416
rclavicle -1.94312e-014 -2.43201e-014
rhumerus -27.2887 10.7194 -95.9611
rradius 101.759
rwrist 33.1784
rhand -16.6609 -18.1022
rfingers 7.12502
rthumb 9.56255 -47.8652
lclavicle -1.94312e-014 -2.43201e-014
lhumerus 2.81729 -43.1491 75.7427
lradius 57.2549
lwrist -18.0862
lhand -12.1148 29.7068
lfingers 7.12502
lthumb 13.9463 59.2191
rfemur -79.3424 6.12404 0.284401
rtibia 42.0118
rfoot -7.623 -29.5898
rtoes -18.0701
lfemur -53.2668 -3.98334 -10.7496
ltibia 54.6321
lfoot -12.4713 31.6578
ltoes 4.35052
185
root 3.76018 14.9188 16.508 -149.577 -32.88 -178.814
lowerback 31.9852 5.57883 -3.39178
upperback 17.8148 2.09067 0.422578
thorax 2.76994 -0.673417 1.61129
lowerneck -28.6449 -4.92284 -1.8133
upperneck 22.6882 -9.36863 10.0974
head 12.9918 -2.90404 2.38919
rclavicle -6.02318e-014 -5.8393e-015
rhumerus -27.0104 10.2614 -95.7611
rradius 101.287
rwrist 33.3492
rhand -16.7167 -18.135
rfingers 7.12502
rthumb 9.50871 -47.9005
lclavicle -6.02318e-014 -5.8393e-015
lhumerus 2.94464 -43.1763 75.9094
lradius 56.6144
lwrist -18.173
lhand -11.9211 29.7663
lfingers 7.12502
lthumb 14.133 59.2656
rfemur -78.7504 6.28467 -0.599463
rtibia 40.1568
rfoot -7.41461 -29.9051
rtoes -18.0081
lfemur -52.4291 -3.62298 -10.7738
ltibia 54.5637
lfoot -12.6363 31.8146
ltoes 4.11181
186
root 3.75956 14.913 16.3728 -149.77 -32.5375 -178.811
lowerback 31.9947 5.78377 -3.64655
upperback 17.8114 2.26908 0.523329
thorax 2.73958 -0.61665 1.80194
lowerneck -28.7445 -4.96663 -1.75913
upperneck 22.8052 -9.47254 10.0911
head 13.0633 -2.93723 2.35788
rclavicle -5.24792e-014 1.08238e-013
rhumerus -26.71 9.88697 -95.6033
rradius 100.795
rwrist 33.4858
rhand -16.7766 -18.1648
rfingers 7.12502
rthumb 9.45092 -47.9329
lclavicle -5.24792e-014 1.08238e-013
lhumerus 3.02413 -43.1316 76.0367
lradius 55.9842
lwrist -18.2958
lhand -11.7288 29.7985
lfingers 7.12502
lthumb 14.3184 59.2847
rfemur -78.1463 6.52346 -1.38072
rtibia 38.4528
rfoot -7.2061 -30.2569
rtoes -17.9711
lfemur -51.5249 -3.17607 -10.8161
ltibia 54.4825
lfoot -12.7568 31.9662
ltoes 3.73812
187
root 3.76256 14.9062 16.2314 -150.007 -32.1492 -178.817
lowerback 32.0459 6.0623 -4.00004
upperback 17.8118 2.50585 0.662412
thorax 2.68712 -0.542868 2.06704
lowerneck -28.8044 -5.02074 -1.70416
upperneck 22.8718 -9.57639 10.0657
head 13.1051 -2.97574 2.31842
rclavicle 4.55217e-014 -5.63803e-014
rhumerus -26.4153 9.50574 -95.3919
rradius 100.313
rwrist 33.5824
rhand -16.8501 -18.2031
rfingers 7.12502
rthumb 9.37997 -47.9744
lclavicle 4.55217e-014 -5.63803e-014
lhumerus 3.10599 -43.1173 76.2015
lradius 55.3394
lwrist -18.4225
lhand -11.5412 29.811
lfingers 7.12502
lthumb 14.4991 59.2844
rfemur -77.5128 6.84441 -2.04795
rtibia 36.9224
rfoot -6.99159 -30.6517
rtoes -17.9608
lfemur -50.5196 -2.65078 -10.8832
ltibia 54.3799
lfoot -12.8783 32.1079
ltoes 3.27385
